<svg width="15" height="15" viewBox="0 0 15 15" fill="none" xmlns="http://www.w3.org/2000/svg">
<path d="M11.7666 0.571289C10.478 0.571289 9.43331 1.61596 9.43331 2.90462C9.43435 3.06864 9.45268 3.23208 9.488 3.39225L4.19015 6.04118C3.74806 5.53222 3.10746 5.23933 2.43331 5.23796C1.14464 5.23796 0.0999756 6.28262 0.0999756 7.57129C0.0999756 8.85995 1.14464 9.90462 2.43331 9.90462C3.10767 9.90386 3.74873 9.61138 4.19128 9.10254L9.48572 11.7503C9.45117 11.9106 9.4336 12.074 9.43331 12.238C9.43331 13.5266 10.478 14.5713 11.7666 14.5713C13.0553 14.5713 14.1 13.5266 14.1 12.238C14.1 10.9493 13.0553 9.90462 11.7666 9.90462C11.0923 9.90538 10.4512 10.1979 10.0087 10.7067L4.71423 8.05892C4.74878 7.89867 4.76635 7.73522 4.76664 7.57129C4.76552 7.40766 4.74719 7.2446 4.71195 7.0848L10.0098 4.43587C10.4521 4.94441 11.0927 5.23687 11.7666 5.23796C13.0553 5.23796 14.1 4.19329 14.1 2.90462C14.1 1.61596 13.0553 0.571289 11.7666 0.571289Z" fill="#ADADAD"/>
</svg>
